<mxfile host="app.diagrams.net" modified="2020-09-30T07:19:38.708Z" agent="5.0 (Windows NT 10.0; Win64; x64) AppleWebKit/537.36 (KHTML, like Gecko) Chrome/85.0.4183.121 Safari/537.36 Edg/85.0.564.63" etag="kPmSBA_GlhAkuAy96yTh" version="13.6.6" type="github">
  <diagram id="MjNpJa7qCShWu4HkDPhQ" name="第 1 页">
    <mxGraphModel dx="1185" dy="635" grid="1" gridSize="10" guides="1" tooltips="1" connect="1" arrows="1" fold="1" page="1" pageScale="1" pageWidth="827" pageHeight="1169" math="0" shadow="0">
      <root>
        <mxCell id="0" />
        <mxCell id="1" parent="0" />
        <mxCell id="pxIBJRZplkxyHJdwLBZw-9" style="edgeStyle=orthogonalEdgeStyle;rounded=0;orthogonalLoop=1;jettySize=auto;html=1;" edge="1" parent="1" source="pxIBJRZplkxyHJdwLBZw-1" target="pxIBJRZplkxyHJdwLBZw-2">
          <mxGeometry relative="1" as="geometry" />
        </mxCell>
        <mxCell id="pxIBJRZplkxyHJdwLBZw-1" value="点击抢购" style="rounded=0;whiteSpace=wrap;html=1;" vertex="1" parent="1">
          <mxGeometry x="40" y="80" width="120" height="60" as="geometry" />
        </mxCell>
        <mxCell id="pxIBJRZplkxyHJdwLBZw-26" style="edgeStyle=orthogonalEdgeStyle;rounded=0;orthogonalLoop=1;jettySize=auto;html=1;entryX=0;entryY=0.25;entryDx=0;entryDy=0;" edge="1" parent="1" source="pxIBJRZplkxyHJdwLBZw-2" target="pxIBJRZplkxyHJdwLBZw-21">
          <mxGeometry relative="1" as="geometry">
            <Array as="points">
              <mxPoint x="200" y="250" />
              <mxPoint x="200" y="114" />
            </Array>
          </mxGeometry>
        </mxCell>
        <mxCell id="pxIBJRZplkxyHJdwLBZw-50" style="edgeStyle=orthogonalEdgeStyle;rounded=0;orthogonalLoop=1;jettySize=auto;html=1;dashed=1;entryX=0.5;entryY=0;entryDx=0;entryDy=0;" edge="1" parent="1" source="pxIBJRZplkxyHJdwLBZw-2" target="pxIBJRZplkxyHJdwLBZw-52">
          <mxGeometry relative="1" as="geometry">
            <mxPoint x="100" y="320" as="targetPoint" />
          </mxGeometry>
        </mxCell>
        <mxCell id="pxIBJRZplkxyHJdwLBZw-2" value="消息放入队列&lt;br&gt;等待处理结果" style="rounded=0;whiteSpace=wrap;html=1;" vertex="1" parent="1">
          <mxGeometry x="40" y="220" width="120" height="60" as="geometry" />
        </mxCell>
        <mxCell id="pxIBJRZplkxyHJdwLBZw-6" value="剩余库存" style="whiteSpace=wrap;html=1;aspect=fixed;fillColor=#fff2cc;strokeColor=#d6b656;" vertex="1" parent="1">
          <mxGeometry x="520" y="80" width="80" height="80" as="geometry" />
        </mxCell>
        <mxCell id="pxIBJRZplkxyHJdwLBZw-14" style="edgeStyle=orthogonalEdgeStyle;rounded=0;orthogonalLoop=1;jettySize=auto;html=1;" edge="1" parent="1" source="pxIBJRZplkxyHJdwLBZw-7" target="pxIBJRZplkxyHJdwLBZw-6">
          <mxGeometry relative="1" as="geometry" />
        </mxCell>
        <mxCell id="pxIBJRZplkxyHJdwLBZw-15" value="10分钟后还回" style="edgeLabel;html=1;align=center;verticalAlign=middle;resizable=0;points=[];" vertex="1" connectable="0" parent="pxIBJRZplkxyHJdwLBZw-14">
          <mxGeometry x="0.2321" relative="1" as="geometry">
            <mxPoint y="9.14" as="offset" />
          </mxGeometry>
        </mxCell>
        <mxCell id="pxIBJRZplkxyHJdwLBZw-7" value="冻结库存" style="whiteSpace=wrap;html=1;aspect=fixed;fillColor=#dae8fc;strokeColor=#6c8ebf;" vertex="1" parent="1">
          <mxGeometry x="520" y="240" width="80" height="80" as="geometry" />
        </mxCell>
        <mxCell id="pxIBJRZplkxyHJdwLBZw-11" style="edgeStyle=orthogonalEdgeStyle;rounded=0;orthogonalLoop=1;jettySize=auto;html=1;" edge="1" parent="1" source="pxIBJRZplkxyHJdwLBZw-10" target="pxIBJRZplkxyHJdwLBZw-6">
          <mxGeometry relative="1" as="geometry" />
        </mxCell>
        <mxCell id="pxIBJRZplkxyHJdwLBZw-12" style="edgeStyle=orthogonalEdgeStyle;rounded=0;orthogonalLoop=1;jettySize=auto;html=1;entryX=0.988;entryY=0.413;entryDx=0;entryDy=0;entryPerimeter=0;" edge="1" parent="1" source="pxIBJRZplkxyHJdwLBZw-10" target="pxIBJRZplkxyHJdwLBZw-7">
          <mxGeometry relative="1" as="geometry" />
        </mxCell>
        <mxCell id="pxIBJRZplkxyHJdwLBZw-10" value="每轮活动开始时&lt;br&gt;进行初始化" style="rounded=0;whiteSpace=wrap;html=1;" vertex="1" parent="1">
          <mxGeometry x="680" y="90" width="120" height="60" as="geometry" />
        </mxCell>
        <mxCell id="pxIBJRZplkxyHJdwLBZw-24" value="" style="group" vertex="1" connectable="0" parent="1">
          <mxGeometry x="280" y="80" width="120" height="80" as="geometry" />
        </mxCell>
        <mxCell id="pxIBJRZplkxyHJdwLBZw-23" value="" style="group" vertex="1" connectable="0" parent="pxIBJRZplkxyHJdwLBZw-24">
          <mxGeometry width="120" height="80" as="geometry" />
        </mxCell>
        <mxCell id="pxIBJRZplkxyHJdwLBZw-20" value="" style="rounded=0;whiteSpace=wrap;html=1;fillColor=#d5e8d4;strokeColor=#82b366;" vertex="1" parent="pxIBJRZplkxyHJdwLBZw-23">
          <mxGeometry width="120" height="22.857142857142858" as="geometry" />
        </mxCell>
        <mxCell id="pxIBJRZplkxyHJdwLBZw-21" value="" style="rounded=0;whiteSpace=wrap;html=1;fillColor=#d5e8d4;strokeColor=#82b366;" vertex="1" parent="pxIBJRZplkxyHJdwLBZw-23">
          <mxGeometry y="28.571428571428573" width="120" height="22.857142857142858" as="geometry" />
        </mxCell>
        <mxCell id="pxIBJRZplkxyHJdwLBZw-22" value="" style="rounded=0;whiteSpace=wrap;html=1;fillColor=#d5e8d4;strokeColor=#82b366;" vertex="1" parent="pxIBJRZplkxyHJdwLBZw-23">
          <mxGeometry y="57.142857142857146" width="120" height="22.857142857142858" as="geometry" />
        </mxCell>
        <mxCell id="pxIBJRZplkxyHJdwLBZw-35" style="edgeStyle=orthogonalEdgeStyle;rounded=0;orthogonalLoop=1;jettySize=auto;html=1;" edge="1" parent="1" source="pxIBJRZplkxyHJdwLBZw-25" target="pxIBJRZplkxyHJdwLBZw-33">
          <mxGeometry relative="1" as="geometry" />
        </mxCell>
        <mxCell id="pxIBJRZplkxyHJdwLBZw-36" value="消息处理" style="edgeLabel;html=1;align=center;verticalAlign=middle;resizable=0;points=[];" vertex="1" connectable="0" parent="pxIBJRZplkxyHJdwLBZw-35">
          <mxGeometry x="-0.2564" relative="1" as="geometry">
            <mxPoint y="12.5" as="offset" />
          </mxGeometry>
        </mxCell>
        <mxCell id="pxIBJRZplkxyHJdwLBZw-25" value="消息队列" style="text;html=1;strokeColor=none;fillColor=none;align=center;verticalAlign=middle;whiteSpace=wrap;rounded=0;fontStyle=1" vertex="1" parent="1">
          <mxGeometry x="305" y="160" width="70" height="20" as="geometry" />
        </mxCell>
        <mxCell id="pxIBJRZplkxyHJdwLBZw-38" style="edgeStyle=orthogonalEdgeStyle;rounded=0;orthogonalLoop=1;jettySize=auto;html=1;entryX=0;entryY=0.5;entryDx=0;entryDy=0;dashed=1;" edge="1" parent="1" source="pxIBJRZplkxyHJdwLBZw-29" target="pxIBJRZplkxyHJdwLBZw-7">
          <mxGeometry relative="1" as="geometry">
            <Array as="points">
              <mxPoint x="480" y="450" />
              <mxPoint x="480" y="280" />
            </Array>
          </mxGeometry>
        </mxCell>
        <mxCell id="pxIBJRZplkxyHJdwLBZw-44" value="" style="edgeStyle=orthogonalEdgeStyle;rounded=0;orthogonalLoop=1;jettySize=auto;html=1;" edge="1" parent="1" source="pxIBJRZplkxyHJdwLBZw-29" target="pxIBJRZplkxyHJdwLBZw-43">
          <mxGeometry relative="1" as="geometry" />
        </mxCell>
        <mxCell id="pxIBJRZplkxyHJdwLBZw-29" value="放入冻结库存" style="rounded=0;whiteSpace=wrap;html=1;" vertex="1" parent="1">
          <mxGeometry x="280" y="420" width="120" height="60" as="geometry" />
        </mxCell>
        <mxCell id="pxIBJRZplkxyHJdwLBZw-39" style="edgeStyle=orthogonalEdgeStyle;rounded=0;orthogonalLoop=1;jettySize=auto;html=1;" edge="1" parent="1" source="pxIBJRZplkxyHJdwLBZw-33" target="pxIBJRZplkxyHJdwLBZw-29">
          <mxGeometry relative="1" as="geometry" />
        </mxCell>
        <mxCell id="pxIBJRZplkxyHJdwLBZw-40" value="扣除成功" style="edgeLabel;html=1;align=center;verticalAlign=middle;resizable=0;points=[];" vertex="1" connectable="0" parent="pxIBJRZplkxyHJdwLBZw-39">
          <mxGeometry x="-0.3084" y="2" relative="1" as="geometry">
            <mxPoint as="offset" />
          </mxGeometry>
        </mxCell>
        <mxCell id="pxIBJRZplkxyHJdwLBZw-48" style="edgeStyle=orthogonalEdgeStyle;rounded=0;orthogonalLoop=1;jettySize=auto;html=1;entryX=1;entryY=0.5;entryDx=0;entryDy=0;" edge="1" parent="1" source="pxIBJRZplkxyHJdwLBZw-33" target="pxIBJRZplkxyHJdwLBZw-52">
          <mxGeometry relative="1" as="geometry">
            <mxPoint x="160" y="350" as="targetPoint" />
            <Array as="points">
              <mxPoint x="200" y="315" />
              <mxPoint x="200" y="350" />
            </Array>
          </mxGeometry>
        </mxCell>
        <mxCell id="pxIBJRZplkxyHJdwLBZw-49" value="扣除失败" style="edgeLabel;html=1;align=center;verticalAlign=middle;resizable=0;points=[];" vertex="1" connectable="0" parent="pxIBJRZplkxyHJdwLBZw-48">
          <mxGeometry x="-0.3338" y="16" relative="1" as="geometry">
            <mxPoint x="-5" y="-1" as="offset" />
          </mxGeometry>
        </mxCell>
        <mxCell id="pxIBJRZplkxyHJdwLBZw-58" style="edgeStyle=orthogonalEdgeStyle;rounded=0;orthogonalLoop=1;jettySize=auto;html=1;entryX=0.021;entryY=0.427;entryDx=0;entryDy=0;entryPerimeter=0;dashed=1;" edge="1" parent="1" source="pxIBJRZplkxyHJdwLBZw-33" target="pxIBJRZplkxyHJdwLBZw-6">
          <mxGeometry relative="1" as="geometry">
            <Array as="points">
              <mxPoint x="440" y="315" />
              <mxPoint x="440" y="114" />
            </Array>
          </mxGeometry>
        </mxCell>
        <mxCell id="pxIBJRZplkxyHJdwLBZw-33" value="扣除库存" style="rhombus;whiteSpace=wrap;html=1;" vertex="1" parent="1">
          <mxGeometry x="300" y="280" width="80" height="70" as="geometry" />
        </mxCell>
        <mxCell id="pxIBJRZplkxyHJdwLBZw-43" value="创建订单,等待支付" style="rounded=0;whiteSpace=wrap;html=1;" vertex="1" parent="1">
          <mxGeometry x="40" y="420" width="120" height="60" as="geometry" />
        </mxCell>
        <mxCell id="pxIBJRZplkxyHJdwLBZw-52" value="&lt;span&gt;抢购失败,库存不足&lt;/span&gt;" style="ellipse;whiteSpace=wrap;html=1;" vertex="1" parent="1">
          <mxGeometry x="40" y="320" width="120" height="60" as="geometry" />
        </mxCell>
      </root>
    </mxGraphModel>
  </diagram>
</mxfile>
